<svg width="400" height="270" xmlns="http://www.w3.org/2000/svg">
  <defs><linearGradient id="bg" x1="0%" y1="0%" x2="100%" y2="100%"><stop offset="0%" style="stop-color:#0f0c29"/><stop offset="100%" style="stop-color:#24243e"/></linearGradient></defs>
  <rect width="400" height="270" fill="url(#bg)"/><rect x="4" y="4" width="392" height="262" fill="none" stroke="#00d2ff" stroke-width="2" opacity="0.5"/><rect x="4" y="4" width="392" height="262" fill="none" stroke="#00d2ff" stroke-width="1"/>
  <rect x="9" y="9" width="77" height="252" fill="#16161f" opacity="0.97"/><rect x="13" y="13" width="68" height="43" fill="#1a1a2e" opacity="0.8"/><rect x="13" y="13" width="68" height="43" fill="none" stroke="#00d2ff" stroke-width="2"/><circle cx="47" cy="28" r="10" fill="#ec4899" opacity="0.8"/><text x="47" y="32" font-family="Arial" font-size="10" font-weight="bold" fill="#fff" text-anchor="middle">E</text><text x="47" y="51" font-family="Arial" font-size="9" font-weight="bold" fill="#00d2ff" text-anchor="middle">FACTION</text>
  <rect x="13" y="65" width="68" height="17" rx="2" fill="#2a2a3e" opacity="0.8"/><text x="18" y="76" font-family="Arial" font-size="9" fill="#b8b8d0">Overview</text><rect x="13" y="84" width="68" height="17" rx="2" fill="#2a2a3e" opacity="0.8"/><text x="18" y="95" font-family="Arial" font-size="9" fill="#b8b8d0">Members</text><rect x="13" y="103" width="68" height="17" rx="2" fill="#2a2a3e" opacity="0.8"/><text x="18" y="114" font-family="Arial" font-size="9" fill="#b8b8d0">Territory</text><rect x="13" y="122" width="68" height="17" rx="2" fill="#2a2a3e" opacity="0.8"/><text x="18" y="133" font-family="Arial" font-size="9" fill="#b8b8d0">Alliances</text><rect x="13" y="141" width="68" height="17" rx="2" fill="#2a2a3e" opacity="0.8"/><text x="18" y="152" font-family="Arial" font-size="9" fill="#b8b8d0">Chest</text><rect x="13" y="160" width="68" height="17" rx="2" fill="#2a2a3e" opacity="0.8"/><text x="18" y="171" font-family="Arial" font-size="9" fill="#b8b8d0">Level</text><rect x="13" y="179" width="68" height="17" rx="2" fill="#2a2a3e" opacity="0.8"/><text x="18" y="190" font-family="Arial" font-size="9" fill="#b8b8d0">Quests</text><rect x="13" y="198" width="68" height="17" rx="2" fill="#2a2a3e" opacity="0.8"/><text x="18" y="209" font-family="Arial" font-size="9" fill="#b8b8d0">Shop</text>
  <rect x="13" y="217" width="68" height="17" rx="2" fill="#667eea"/><rect x="13" y="217" width="20" height="2" fill="#00d2ff"/><text x="18" y="228" font-family="Arial" font-size="9" font-weight="bold" fill="#fff">Settings</text>
  <rect x="13" y="235" width="68" height="26" fill="#1a1a2e" opacity="0.9"/><text x="47" y="245" font-family="Arial" font-size="8" fill="#a0a0c0" text-anchor="middle">POWER</text><rect x="18" y="248" width="60" height="4" rx="2" fill="#2a2a3e"/><rect x="18" y="248" width="45" height="4" rx="2" fill="#a855f7"/><text x="47" y="259" font-family="Arial" font-size="9" font-weight="bold" fill="#00d2ff" text-anchor="middle">75.0/100.0</text>
  <rect x="90" y="9" width="297" height="252" fill="#1e1e2e" opacity="0.94"/><rect x="95" y="13" width="289" height="26" fill="#1a1a2e" opacity="0.8"/><rect x="95" y="13" width="289" height="26" fill="none" stroke="#00d2ff" stroke-width="2"/><rect x="95" y="13" width="22" height="2" fill="#00d2ff"/><text x="102" y="29" font-family="Arial" font-size="14" font-weight="bold" fill="#fff">Settings - Permissions</text><rect x="373" y="17" width="11" height="11" rx="2" fill="#ef4444" opacity="0.8"/><text x="378.5" y="25" font-family="Arial" font-size="10" font-weight="bold" fill="#fff" text-anchor="middle">X</text>

  <!-- Header (x=99, y=47, w=275, h=22) -->
  <rect x="99" y="47" width="275" height="22" fill="#1e1e2e" opacity="0.8"/>
  <rect x="99" y="47" width="275" height="22" fill="none" stroke="#00d2ff" stroke-width="2"/>
  <rect x="99" y="47" width="22" height="2" fill="#00d2ff"/>
  <text x="108" y="62" font-family="Arial" font-size="14" font-weight="bold" fill="#fff">Permissions</text>

  <!-- Rank buttons (x=99, y=74, w=92, spacing=6, h=17) -->
  <rect x="99" y="74" width="92" height="17" rx="2" fill="#a855f7"/><text x="145" y="86" font-family="Arial" font-size="9" font-weight="bold" fill="#fff" text-anchor="middle">Officer</text><text x="145" y="88" font-family="Arial" font-size="8" fill="#a0a0c0" text-anchor="middle">12</text>
  <rect x="197" y="74" width="92" height="17" rx="2" fill="#2a2a3e"/><text x="243" y="86" font-family="Arial" font-size="9" fill="#b8b8d0" text-anchor="middle">Member</text><text x="243" y="88" font-family="Arial" font-size="8" fill="#6a6a7e" text-anchor="middle">8</text>
  <rect x="295" y="74" width="79" height="17" rx="2" fill="#2a2a3e"/><text x="334.5" y="86" font-family="Arial" font-size="9" fill="#b8b8d0" text-anchor="middle">Recruit</text><text x="334.5" y="88" font-family="Arial" font-size="8" fill="#6a6a7e" text-anchor="middle">4</text>

  <!-- Permission list (x=99, y=96, w=275, h=146) -->
  <rect x="99" y="96" width="275" height="146" fill="#1e1e2e" opacity="0.9"/><rect x="368" y="96" width="6" height="146" fill="#2a2a3e" opacity="0.5"/><rect x="368" y="96" width="6" height="50" fill="#667eea"/>

  <!-- Permission items (24px height each) -->
  <rect x="103" y="101" width="265" height="24" fill="transparent"/>
  <rect x="109" y="108" width="10" height="10" rx="2" fill="#10b981"/><text x="114.5" y="117" font-family="Arial" font-size="8" font-weight="bold" fill="#fff" text-anchor="middle">✓</text>
  <text x="123" y="116" font-family="Arial" font-size="9" fill="#fff">Invite members</text>
  <text x="123" y="124" font-family="Arial" font-size="7" fill="#9a9aae">Allow inviting players to faction</text>

  <rect x="103" y="126" width="265" height="24" fill="transparent"/>
  <rect x="109" y="133" width="10" height="10" rx="2" fill="#10b981"/><text x="114.5" y="142" font-family="Arial" font-size="8" font-weight="bold" fill="#fff" text-anchor="middle">✓</text>
  <text x="123" y="141" font-family="Arial" font-size="9" fill="#fff">Kick members</text>
  <text x="123" y="149" font-family="Arial" font-size="7" fill="#9a9aae">Remove players from faction</text>

  <rect x="103" y="151" width="265" height="24" fill="transparent"/>
  <rect x="109" y="158" width="10" height="10" rx="2" fill="#10b981"/><text x="114.5" y="167" font-family="Arial" font-size="8" font-weight="bold" fill="#fff" text-anchor="middle">✓</text>
  <text x="123" y="166" font-family="Arial" font-size="9" fill="#fff">Claim territory</text>
  <text x="123" y="174" font-family="Arial" font-size="7" fill="#9a9aae">Claim chunks for faction</text>

  <rect x="103" y="176" width="265" height="24" fill="transparent"/>
  <rect x="109" y="183" width="10" height="10" rx="2" fill="#6a6a7e"/>
  <text x="123" y="191" font-family="Arial" font-size="9" fill="#fff">Manage permissions</text>
  <text x="123" y="199" font-family="Arial" font-size="7" fill="#9a9aae">Edit rank permissions</text>

  <rect x="103" y="201" width="265" height="24" fill="transparent"/>
  <rect x="109" y="208" width="10" height="10" rx="2" fill="#10b981"/><text x="114.5" y="217" font-family="Arial" font-size="8" font-weight="bold" fill="#fff" text-anchor="middle">✓</text>
  <text x="123" y="216" font-family="Arial" font-size="9" fill="#fff">Manage alliances</text>
  <text x="123" y="224" font-family="Arial" font-size="7" fill="#9a9aae">Create and manage alliances</text>

  <!-- Action buttons (x=99, y=247, w=85, spacing=6, h=17) -->
  <rect x="99" y="247" width="85" height="17" rx="3" fill="#667eea"/><text x="141.5" y="259" font-family="Arial" font-size="10" font-weight="bold" fill="#fff" text-anchor="middle">Refresh</text>
  <rect x="190" y="247" width="85" height="17" rx="3" fill="#2a2a3e"/><text x="232.5" y="259" font-family="Arial" font-size="10" fill="#b8b8d0" text-anchor="middle">Reset</text>
  <rect x="281" y="247" width="93" height="17" rx="3" fill="#2a2a3e"/><text x="327.5" y="259" font-family="Arial" font-size="9" fill="#b8b8d0" text-anchor="middle">Grant All</text>
</svg>
