<?xml version="1.0" encoding="UTF-8"?>
<svg width="400" height="270" viewBox="0 0 400 270" xmlns="http://www.w3.org/2000/svg">
  <defs>
    <linearGradient id="bgGradient" x1="0%" y1="0%" x2="0%" y2="100%">
      <stop offset="0%" style="stop-color:#1a1a2e;stop-opacity:1" />
      <stop offset="100%" style="stop-color:#16213e;stop-opacity:1" />
    </linearGradient>

    <linearGradient id="minerGradient" x1="0%" y1="0%" x2="100%" y2="0%">
      <stop offset="0%" style="stop-color:#fbbf24;stop-opacity:0.2" />
      <stop offset="50%" style="stop-color:#fbbf24;stop-opacity:0.4" />
      <stop offset="100%" style="stop-color:#fbbf24;stop-opacity:0.2" />
    </linearGradient>

    <linearGradient id="cardGradient" x1="0%" y1="0%" x2="0%" y2="100%">
      <stop offset="0%" style="stop-color:#2a2a3e;stop-opacity:1" />
      <stop offset="100%" style="stop-color:#1e1e2e;stop-opacity:1" />
    </linearGradient>

    <linearGradient id="xpBarGradient" x1="0%" y1="0%" x2="100%" y2="0%">
      <stop offset="0%" style="stop-color:#fbbf24;stop-opacity:0.8" />
      <stop offset="100%" style="stop-color:#fcd34d;stop-opacity:1" />
    </linearGradient>
  </defs>

  <!-- Background -->
  <rect width="400" height="270" fill="url(#bgGradient)"/>

  <!-- Border -->
  <rect x="2" y="2" width="396" height="266" fill="none" stroke="#fbbf24" stroke-width="2" rx="4"/>

  <!-- Header -->
  <rect x="8" y="8" width="384" height="40" fill="url(#minerGradient)" rx="4"/>

  <!-- Back button -->
  <circle cx="26" cy="28" r="12" fill="#fbbf24" opacity="0.2"/>
  <text x="26" y="34" font-family="Arial, sans-serif" font-size="16" font-weight="bold" fill="#fbbf24" text-anchor="middle">‹</text>

  <!-- Job icon and title -->
  <rect x="46" y="14" width="28" height="28" fill="#3a3a4a" rx="2"/>
  <text x="60" y="36" font-family="Arial, sans-serif" font-size="18" fill="#fbbf24" text-anchor="middle">⛏</text>

  <text x="82" y="26" font-family="Arial, sans-serif" font-size="14" font-weight="bold" fill="#fbbf24">MINER</text>
  <text x="82" y="40" font-family="Arial, sans-serif" font-size="9" fill="#9ca3af">Extract valuable resources from the earth</text>

  <!-- Close button -->
  <rect x="372" y="16" width="14" height="14" fill="#ef4444" rx="2"/>
  <line x1="375" y1="19" x2="383" y2="27" stroke="white" stroke-width="2"/>
  <line x1="383" y1="19" x2="375" y2="27" stroke="white" stroke-width="2"/>

  <!-- Level Card -->
  <rect x="8" y="54" width="384" height="46" fill="url(#cardGradient)" rx="4" stroke="#fbbf24" stroke-width="1"/>

  <!-- Level badge -->
  <rect x="18" y="64" width="50" height="26" fill="#fbbf24" rx="3"/>
  <text x="43" y="72" font-family="Arial, sans-serif" font-size="8" font-weight="bold" fill="#1a1a2e" text-anchor="middle">LEVEL</text>
  <text x="43" y="84" font-family="Arial, sans-serif" font-size="12" font-weight="bold" fill="#1a1a2e" text-anchor="middle">15</text>

  <!-- XP Info -->
  <text x="78" y="74" font-family="Arial, sans-serif" font-size="11" fill="#ffffff">Experience</text>
  <text x="78" y="88" font-family="Arial, sans-serif" font-size="9" fill="#9ca3af">750 / 1000 XP (75%)</text>

  <!-- XP Progress Bar -->
  <rect x="180" y="68" width="200" height="16" fill="#3a3a4a" rx="8"/>
  <rect x="180" y="68" width="150" height="16" fill="url(#xpBarGradient)" rx="8"/>
  <text x="280" y="79" font-family="Arial, sans-serif" font-size="10" font-weight="bold" fill="#1a1a2e" text-anchor="middle">75%</text>

  <!-- Action Buttons -->
  <g id="button-howtoxp">
    <rect x="8" y="106" width="187" height="36" fill="url(#cardGradient)" rx="4" stroke="#10b981" stroke-width="1"/>
    <text x="102" y="120" font-family="Arial, sans-serif" font-size="11" font-weight="bold" fill="#10b981" text-anchor="middle">How to gain XP</text>
    <text x="102" y="132" font-family="Arial, sans-serif" font-size="8" fill="#9ca3af" text-anchor="middle">View all XP sources</text>
  </g>

  <g id="button-unlocked">
    <rect x="205" y="106" width="187" height="36" fill="url(#cardGradient)" rx="4" stroke="#a855f7" stroke-width="1"/>
    <text x="298" y="120" font-family="Arial, sans-serif" font-size="11" font-weight="bold" fill="#a855f7" text-anchor="middle">Unlocked Features</text>
    <text x="298" y="132" font-family="Arial, sans-serif" font-size="8" fill="#9ca3af" text-anchor="middle">3 unlocked • 7 locked</text>
  </g>

  <!-- Recent Unlocks Section -->
  <rect x="8" y="148" width="384" height="16" fill="#2a2a3e" rx="2"/>
  <text x="14" y="159" font-family="Arial, sans-serif" font-size="10" font-weight="bold" fill="#fbbf24">RECENT UNLOCKS</text>

  <!-- Unlock items -->
  <g id="unlock-1">
    <rect x="8" y="170" width="384" height="28" fill="url(#cardGradient)" rx="3" stroke="#10b981" stroke-width="1"/>
    <circle cx="20" cy="184" r="6" fill="#10b981"/>
    <text x="25" y="186" font-family="Arial, sans-serif" font-size="8" font-weight="bold" fill="#10b981" text-anchor="middle">✓</text>
    <text x="32" y="181" font-family="Arial, sans-serif" font-size="10" font-weight="bold" fill="#ffffff">Diamond Pickaxe</text>
    <text x="32" y="191" font-family="Arial, sans-serif" font-size="8" fill="#9ca3af">Unlocked at Level 15</text>
    <rect x="350" y="176" width="32" height="16" fill="#10b981" rx="2"/>
    <text x="366" y="187" font-family="Arial, sans-serif" font-size="8" font-weight="bold" fill="#ffffff" text-anchor="middle">LVL 15</text>
  </g>

  <g id="unlock-2">
    <rect x="8" y="202" width="384" height="28" fill="url(#cardGradient)" rx="3" stroke="#6b7280" stroke-width="1" opacity="0.5"/>
    <circle cx="20" cy="216" r="6" fill="#6b7280"/>
    <text x="25" y="218" font-family="Arial, sans-serif" font-size="8" font-weight="bold" fill="#6b7280" text-anchor="middle">🔒</text>
    <text x="32" y="213" font-family="Arial, sans-serif" font-size="10" font-weight="bold" fill="#9ca3af">Netherite Upgrade</text>
    <text x="32" y="223" font-family="Arial, sans-serif" font-size="8" fill="#6b7280">Requires Level 30</text>
    <rect x="350" y="208" width="32" height="16" fill="#ef4444" rx="2"/>
    <text x="366" y="219" font-family="Arial, sans-serif" font-size="8" font-weight="bold" fill="#ffffff" text-anchor="middle">LVL 30</text>
  </g>

  <g id="unlock-3">
    <rect x="8" y="234" width="384" height="28" fill="url(#cardGradient)" rx="3" stroke="#6b7280" stroke-width="1" opacity="0.5"/>
    <circle cx="20" cy="248" r="6" fill="#6b7280"/>
    <text x="25" y="250" font-family="Arial, sans-serif" font-size="8" font-weight="bold" fill="#6b7280" text-anchor="middle">🔒</text>
    <text x="32" y="245" font-family="Arial, sans-serif" font-size="10" font-weight="bold" fill="#9ca3af">Fortune III</text>
    <text x="32" y="255" font-family="Arial, sans-serif" font-size="8" fill="#6b7280">Requires Level 50</text>
    <rect x="350" y="240" width="32" height="16" fill="#ef4444" rx="2"/>
    <text x="366" y="251" font-family="Arial, sans-serif" font-size="8" font-weight="bold" fill="#ffffff" text-anchor="middle">LVL 50</text>
  </g>
</svg>
