<svg width="400" height="270" xmlns="http://www.w3.org/2000/svg">
  <defs>
    <linearGradient id="bgGradient" x1="0%" y1="0%" x2="100%" y2="100%">
      <stop offset="0%" style="stop-color:#0f0c29;stop-opacity:1" />
      <stop offset="50%" style="stop-color:#1a1347;stop-opacity:1" />
      <stop offset="100%" style="stop-color:#24243e;stop-opacity:1" />
    </linearGradient>
    <linearGradient id="mainPanelGradient" x1="0%" y1="0%" x2="0%" y2="100%">
      <stop offset="0%" style="stop-color:#1e1e2e;stop-opacity:0.95" />
      <stop offset="100%" style="stop-color:#2a2a3e;stop-opacity:0.95" />
    </linearGradient>
    <linearGradient id="sidebarGradient" x1="0%" y1="0%" x2="0%" y2="100%">
      <stop offset="0%" style="stop-color:#16161f;stop-opacity:0.98" />
      <stop offset="100%" style="stop-color:#1e1e2a;stop-opacity:0.98" />
    </linearGradient>
    <linearGradient id="accentGradient" x1="0%" y1="0%" x2="100%" y2="0%">
      <stop offset="0%" style="stop-color:#00d2ff;stop-opacity:1" />
      <stop offset="100%" style="stop-color:#3a47d5;stop-opacity:1" />
    </linearGradient>
    <linearGradient id="cosmicGlow" x1="0%" y1="0%" x2="100%" y2="100%">
      <stop offset="0%" style="stop-color:#a855f7;stop-opacity:0.6" />
      <stop offset="50%" style="stop-color:#ec4899;stop-opacity:0.4" />
      <stop offset="100%" style="stop-color:#3b82f6;stop-opacity:0.6" />
    </linearGradient>
    <linearGradient id="goldGradient" x1="0%" y1="0%" x2="0%" y2="100%">
      <stop offset="0%" style="stop-color:#fbbf24;stop-opacity:1" />
      <stop offset="100%" style="stop-color:#f59e0b;stop-opacity:1" />
    </linearGradient>
    <filter id="glow">
      <feGaussianBlur stdDeviation="2" result="coloredBlur"/>
      <feMerge>
        <feMergeNode in="coloredBlur"/>
        <feMergeNode in="SourceGraphic"/>
      </feMerge>
    </filter>
    <pattern id="circuitPattern" x="0" y="0" width="40" height="40" patternUnits="userSpaceOnUse">
      <line x1="0" y1="20" x2="40" y2="20" stroke="#667eea" stroke-width="0.5" opacity="0.1"/>
      <line x1="20" y1="0" x2="20" y2="40" stroke="#667eea" stroke-width="0.5" opacity="0.1"/>
      <circle cx="20" cy="20" r="2" fill="#00d2ff" opacity="0.2"/>
    </pattern>
  </defs>

  <!-- Background -->
  <rect width="400" height="270" fill="url(#bgGradient)"/>
  <rect width="400" height="270" fill="url(#circuitPattern)" opacity="0.5"/>

  <!-- Sidebar (x=9, y=9, w=77, h=252) -->
  <g id="sidebar">
    <rect x="9" y="9" width="77" height="252" rx="4" fill="url(#sidebarGradient)"/>
    <rect x="9" y="9" width="77" height="252" rx="4" fill="none" stroke="#667eea" stroke-width="1" opacity="0.3"/>

    <!-- Logo -->
    <circle cx="47.5" cy="30" r="12" fill="url(#cosmicGlow)"/>
    <text x="47.5" y="35" font-family="Arial, sans-serif" font-size="14" font-weight="bold" fill="#ffffff" text-anchor="middle">E</text>

    <!-- Nav buttons -->
    <rect x="13" y="50" width="69" height="20" rx="2" fill="#2a2a3e" opacity="0.8"/>
    <text x="17" y="64" font-family="Arial, sans-serif" font-size="9" fill="#b8b8d0">Overview</text>

    <rect x="13" y="73" width="69" height="20" rx="2" fill="#2a2a3e" opacity="0.8"/>
    <text x="17" y="87" font-family="Arial, sans-serif" font-size="9" fill="#b8b8d0">Members</text>

    <rect x="13" y="96" width="69" height="20" rx="2" fill="#2a2a3e" opacity="0.8"/>
    <text x="17" y="110" font-family="Arial, sans-serif" font-size="9" fill="#b8b8d0">Territory</text>

    <rect x="13" y="119" width="69" height="20" rx="2" fill="#2a2a3e" opacity="0.8"/>
    <text x="17" y="133" font-family="Arial, sans-serif" font-size="9" fill="#b8b8d0">Quests</text>

    <rect x="13" y="142" width="69" height="20" rx="2" fill="#667eea" filter="url(#glow)"/>
    <rect x="13" y="142" width="69" height="20" rx="2" fill="none" stroke="#00d2ff" stroke-width="1"/>
    <text x="17" y="156" font-family="Arial, sans-serif" font-size="9" font-weight="bold" fill="#ffffff">Level</text>

    <rect x="13" y="165" width="69" height="20" rx="2" fill="#2a2a3e" opacity="0.8"/>
    <text x="17" y="179" font-family="Arial, sans-serif" font-size="9" fill="#b8b8d0">Shop</text>

    <rect x="13" y="188" width="69" height="20" rx="2" fill="#2a2a3e" opacity="0.8"/>
    <text x="17" y="202" font-family="Arial, sans-serif" font-size="9" fill="#b8b8d0">Settings</text>

    <!-- Power indicator -->
    <rect x="13" y="238" width="69" height="18" rx="2" fill="#1a1a2e" opacity="0.9"/>
    <text x="47.5" y="249" font-family="Arial, sans-serif" font-size="8" fill="#00d2ff" text-anchor="middle">75.0 PWR</text>
  </g>

  <!-- Main panel (x=90, y=9, w=297, h=252) -->
  <g id="mainPanel">
    <rect x="90" y="9" width="297" height="252" rx="4" fill="url(#mainPanelGradient)"/>
    <rect x="90" y="9" width="297" height="252" rx="4" fill="none" stroke="#667eea" stroke-width="1" opacity="0.3"/>

    <!-- Header (x=90, y=9, w=297, h=35) -->
    <rect x="90" y="9" width="297" height="35" rx="4" fill="#1a1a2e" opacity="0.8"/>
    <line x1="94" y1="9" x2="120" y2="9" stroke="#00d2ff" stroke-width="2" filter="url(#glow)"/>
    <text x="99" y="31" font-family="Arial, sans-serif" font-size="14" font-weight="bold" fill="#ffffff">Faction Level</text>

    <!-- Close button -->
    <rect x="367" y="18" width="12" height="12" rx="2" fill="#ef4444" opacity="0.8"/>
    <line x1="370" y1="21" x2="376" y2="27" stroke="#ffffff" stroke-width="1.5"/>
    <line x1="376" y1="21" x2="370" y2="27" stroke="#ffffff" stroke-width="1.5"/>
  </g>

  <!-- Level Display (x=99, y=47, w=267, h=65) -->
  <rect x="99" y="47" width="267" height="65" rx="3" fill="#1e1e2e" opacity="0.9"/>
  <rect x="99" y="47" width="267" height="1" fill="#fbbf24"/>

  <!-- Level badge (center at 143, 79, size 50x48) -->
  <rect x="118" y="55" width="50" height="48" rx="3" fill="#fbbf24"/>
  <text x="143" y="73" font-family="Arial, sans-serif" font-size="8" fill="#ffffff" text-anchor="middle">LEVEL</text>
  <text x="143" y="93" font-family="Arial, sans-serif" font-size="18" font-weight="bold" fill="#ffffff" text-anchor="middle">7</text>

  <!-- Level info (x=182, y starting at 63) -->
  <text x="182" y="63" font-family="Arial, sans-serif" font-size="11" font-weight="bold" fill="#fbbf24">Level 7</text>
  <text x="182" y="74" font-family="Arial, sans-serif" font-size="9" fill="#a0a0c0">Max Claims: 250</text>
  <text x="182" y="84" font-family="Arial, sans-serif" font-size="9" fill="#a0a0c0">Max Members: 50</text>

  <!-- XP Bar (x=103, y=127, w=267, h=11) -->
  <text x="103" y="124" font-family="Arial, sans-serif" font-size="8" fill="#a0a0c0">EXPERIENCE PROGRESS</text>
  <rect x="103" y="127" width="267" height="11" rx="5" fill="#2a2a3e"/>
  <rect x="103" y="127" width="200" height="11" rx="5" fill="#a855f7"/>
  <text x="236.5" y="135" font-family="Arial, sans-serif" font-size="8" fill="#ffffff" text-anchor="middle">7,500 / 10,000 XP</text>

  <!-- Benefits section (x=99, y=144, w=267, h=17) -->
  <rect x="99" y="144" width="267" height="17" rx="0" fill="#2a2a3e" opacity="0.8"/>
  <text x="103" y="155" font-family="Arial, sans-serif" font-size="9" font-weight="bold" fill="#ffffff">LEVEL BENEFITS</text>

  <!-- Benefits list (starting at y=168) -->
  <text x="108" y="168" font-family="Arial, sans-serif" font-size="8" fill="#10b981">Unlock additional claims per level</text>
  <text x="108" y="192" font-family="Arial, sans-serif" font-size="8" fill="#10b981">Increase faction member capacity</text>
  <text x="108" y="216" font-family="Arial, sans-serif" font-size="8" fill="#10b981">Access to higher tier perks</text>
</svg>
