<svg width="400" height="270" xmlns="http://www.w3.org/2000/svg">
  <defs>
    <linearGradient id="bgGradient" x1="0%" y1="0%" x2="100%" y2="100%">
      <stop offset="0%" style="stop-color:#0f0c29;stop-opacity:1" />
      <stop offset="100%" style="stop-color:#24243e;stop-opacity:1" />
    </linearGradient>
  </defs>

  <!-- Background -->
  <rect width="400" height="270" fill="url(#bgGradient)"/>
  <rect x="4" y="4" width="392" height="262" fill="none" stroke="#00d2ff" stroke-width="2" opacity="0.5"/>
  <rect x="4" y="4" width="392" height="262" fill="none" stroke="#00d2ff" stroke-width="1"/>

  <!-- Sidebar (same as overview) -->
  <rect x="9" y="9" width="77" height="252" fill="#16161f" opacity="0.97"/>
  <rect x="9" y="9" width="77" height="252" fill="none" stroke="#667eea" stroke-width="1" opacity="0.3"/>
  <rect x="13" y="13" width="68" height="43" fill="#1a1a2e" opacity="0.8"/>
  <rect x="13" y="13" width="68" height="43" fill="none" stroke="#00d2ff" stroke-width="2"/>
  <circle cx="47" cy="28" r="10" fill="#ec4899" opacity="0.8"/>
  <text x="47" y="32" font-family="Arial" font-size="10" font-weight="bold" fill="#ffffff" text-anchor="middle">E</text>
  <text x="47" y="51" font-family="Arial" font-size="9" font-weight="bold" fill="#00d2ff" text-anchor="middle">FACTION</text>

  <rect x="13" y="65" width="68" height="17" rx="2" fill="#2a2a3e" opacity="0.8"/>
  <text x="18" y="76" font-family="Arial" font-size="9" fill="#b8b8d0">Overview</text>

  <rect x="13" y="84" width="68" height="17" rx="2" fill="#667eea"/>
  <rect x="13" y="84" width="20" height="2" fill="#00d2ff"/>
  <text x="18" y="95" font-family="Arial" font-size="9" font-weight="bold" fill="#ffffff">Members</text>

  <rect x="13" y="103" width="68" height="17" rx="2" fill="#2a2a3e" opacity="0.8"/>
  <text x="18" y="114" font-family="Arial" font-size="9" fill="#b8b8d0">Territory</text>

  <rect x="13" y="122" width="68" height="17" rx="2" fill="#2a2a3e" opacity="0.8"/>
  <text x="18" y="133" font-family="Arial" font-size="9" fill="#b8b8d0">Alliances</text>

  <rect x="13" y="141" width="68" height="17" rx="2" fill="#2a2a3e" opacity="0.8"/>
  <text x="18" y="152" font-family="Arial" font-size="9" fill="#b8b8d0">Chest</text>

  <rect x="13" y="160" width="68" height="17" rx="2" fill="#2a2a3e" opacity="0.8"/>
  <text x="18" y="171" font-family="Arial" font-size="9" fill="#b8b8d0">Level</text>

  <rect x="13" y="179" width="68" height="17" rx="2" fill="#2a2a3e" opacity="0.8"/>
  <text x="18" y="190" font-family="Arial" font-size="9" fill="#b8b8d0">Quests</text>

  <rect x="13" y="198" width="68" height="17" rx="2" fill="#2a2a3e" opacity="0.8"/>
  <text x="18" y="209" font-family="Arial" font-size="9" fill="#b8b8d0">Shop</text>

  <rect x="13" y="217" width="68" height="17" rx="2" fill="#2a2a3e" opacity="0.8"/>
  <text x="18" y="228" font-family="Arial" font-size="9" fill="#b8b8d0">Settings</text>

  <rect x="13" y="235" width="68" height="26" fill="#1a1a2e" opacity="0.9"/>
  <text x="47" y="245" font-family="Arial" font-size="8" fill="#a0a0c0" text-anchor="middle">POWER</text>
  <rect x="18" y="248" width="60" height="4" rx="2" fill="#2a2a3e"/>
  <rect x="18" y="248" width="45" height="4" rx="2" fill="#a855f7"/>
  <text x="47" y="259" font-family="Arial" font-size="9" font-weight="bold" fill="#00d2ff" text-anchor="middle">75.0/100.0</text>

  <!-- Main panel -->
  <rect x="90" y="9" width="297" height="252" fill="#1e1e2e" opacity="0.94"/>

  <!-- Header -->
  <rect x="95" y="13" width="289" height="22" fill="#1a1a2e" opacity="0.8"/>
  <rect x="95" y="13" width="289" height="22" fill="none" stroke="#00d2ff" stroke-width="2"/>
  <rect x="95" y="13" width="22" height="2" fill="#00d2ff"/>
  <text x="102" y="28" font-family="Arial" font-size="14" font-weight="bold" fill="#ffffff">Faction - Members</text>
  <text x="350" y="28" font-family="Arial" font-size="10" fill="#00d2ff" text-anchor="end">24 membres</text>

  <!-- Close button -->
  <rect x="373" y="17" width="11" height="11" rx="2" fill="#ef4444" opacity="0.8"/>
  <text x="378.5" y="25" font-family="Arial" font-size="10" font-weight="bold" fill="#ffffff" text-anchor="middle">X</text>

  <!-- Members list -->
  <rect x="95" y="40" width="289" height="215" fill="#1e1e2e" opacity="0.9"/>
  <rect x="95" y="40" width="289" height="215" fill="none" stroke="#667eea" stroke-width="1" opacity="0.3"/>

  <!-- Scrollbar -->
  <rect x="378" y="40" width="6" height="215" fill="#2a2a3e" opacity="0.5"/>
  <rect x="378" y="40" width="6" height="60" fill="#667eea"/>

  <!-- Member items -->
  <rect x="99" y="45" width="275" height="30" fill="#667eea" opacity="0.2"/>
  <circle cx="107" cy="60" r="3" fill="#10b981"/>
  <text x="115" y="55" font-family="Arial" font-size="10" font-weight="bold" fill="#ffffff">AstralCommander</text>
  <text x="115" y="67" font-family="Arial" font-size="8" fill="#a855f7">Officier</text>
  <rect x="270" y="52" width="90" height="6" rx="3" fill="#2a2a3e"/>
  <rect x="270" y="52" width="75" height="6" rx="3" fill="#a855f7"/>
  <text x="270" y="66" font-family="Arial" font-size="8" fill="#00d2ff">20.0/20.0</text>

  <rect x="99" y="80" width="275" height="30" fill="transparent"/>
  <circle cx="107" cy="95" r="3" fill="#10b981"/>
  <text x="115" y="90" font-family="Arial" font-size="10" fill="#ffffff">Player_123</text>
  <text x="115" y="102" font-family="Arial" font-size="8" fill="#3b82f6">Membre</text>
  <rect x="270" y="87" width="90" height="6" rx="3" fill="#2a2a3e"/>
  <rect x="270" y="87" width="60" height="6" rx="3" fill="#a855f7"/>
  <text x="270" y="101" font-family="Arial" font-size="8" fill="#00d2ff">12.5/20.0</text>

  <rect x="99" y="115" width="275" height="30" fill="transparent"/>
  <circle cx="107" cy="130" r="3" fill="#6a6a7e"/>
  <text x="115" y="125" font-family="Arial" font-size="10" fill="#b8b8d0">CyberKnight47</text>
  <text x="115" y="137" font-family="Arial" font-size="8" fill="#3b82f6">Membre</text>
  <rect x="270" y="122" width="90" height="6" rx="3" fill="#2a2a3e"/>
  <rect x="270" y="122" width="70" height="6" rx="3" fill="#a855f7"/>
  <text x="270" y="136" font-family="Arial" font-size="8" fill="#00d2ff">14.0/20.0</text>

  <rect x="99" y="150" width="275" height="30" fill="transparent"/>
  <circle cx="107" cy="165" r="3" fill="#10b981"/>
  <text x="115" y="160" font-family="Arial" font-size="10" fill="#ffffff">Newbie_99</text>
  <text x="115" y="172" font-family="Arial" font-size="8" fill="#6a6a7e">Recrue</text>
  <rect x="270" y="157" width="90" height="6" rx="3" fill="#2a2a3e"/>
  <rect x="270" y="157" width="40" height="6" rx="3" fill="#a855f7"/>
  <text x="270" y="171" font-family="Arial" font-size="8" fill="#00d2ff">8.0/20.0</text>

  <rect x="99" y="185" width="275" height="30" fill="transparent"/>
  <circle cx="107" cy="200" r="3" fill="#6a6a7e"/>
  <text x="115" y="195" font-family="Arial" font-size="10" fill="#b8b8d0">Starter_01</text>
  <text x="115" y="207" font-family="Arial" font-size="8" fill="#6a6a7e">Recrue</text>
  <rect x="270" y="192" width="90" height="6" rx="3" fill="#2a2a3e"/>
  <rect x="270" y="192" width="50" height="6" rx="3" fill="#a855f7"/>
  <text x="270" y="206" font-family="Arial" font-size="8" fill="#00d2ff">10.0/20.0</text>

  <rect x="99" y="220" width="275" height="30" fill="transparent"/>
  <circle cx="107" cy="235" r="3" fill="#10b981"/>
  <text x="115" y="230" font-family="Arial" font-size="10" fill="#ffffff">ViceLeader</text>
  <text x="115" y="242" font-family="Arial" font-size="8" fill="#a855f7">Officier</text>
  <rect x="270" y="227" width="90" height="6" rx="3" fill="#2a2a3e"/>
  <rect x="270" y="227" width="80" height="6" rx="3" fill="#a855f7"/>
  <text x="270" y="241" font-family="Arial" font-size="8" fill="#00d2ff">16.0/20.0</text>
</svg>
