<svg width="400" height="270" xmlns="http://www.w3.org/2000/svg">
  <defs>
    <linearGradient id="bgGradient" x1="0%" y1="0%" x2="100%" y2="100%">
      <stop offset="0%" style="stop-color:#0f0c29;stop-opacity:1" />
      <stop offset="100%" style="stop-color:#24243e;stop-opacity:1" />
    </linearGradient>
  </defs>

  <!-- Background -->
  <rect width="400" height="270" fill="url(#bgGradient)"/>
  <rect x="4" y="4" width="392" height="262" fill="none" stroke="#00d2ff" stroke-width="2" opacity="0.5"/>
  <rect x="4" y="4" width="392" height="262" fill="none" stroke="#00d2ff" stroke-width="1"/>

  <!-- Sidebar (same as overview) -->
  <rect x="9" y="9" width="77" height="252" fill="#16161f" opacity="0.97"/>
  <rect x="9" y="9" width="77" height="252" fill="none" stroke="#667eea" stroke-width="1" opacity="0.3"/>
  <rect x="13" y="13" width="68" height="43" fill="#1a1a2e" opacity="0.8"/>
  <rect x="13" y="13" width="68" height="43" fill="none" stroke="#00d2ff" stroke-width="2"/>
  <circle cx="47" cy="28" r="10" fill="#ec4899" opacity="0.8"/>
  <text x="47" y="32" font-family="Arial" font-size="10" font-weight="bold" fill="#ffffff" text-anchor="middle">E</text>
  <text x="47" y="51" font-family="Arial" font-size="9" font-weight="bold" fill="#00d2ff" text-anchor="middle">FACTION</text>

  <rect x="13" y="65" width="68" height="17" rx="2" fill="#2a2a3e" opacity="0.8"/>
  <text x="18" y="76" font-family="Arial" font-size="9" fill="#b8b8d0">Overview</text>

  <rect x="13" y="84" width="68" height="17" rx="2" fill="#667eea"/>
  <rect x="13" y="84" width="20" height="2" fill="#00d2ff"/>
  <text x="18" y="95" font-family="Arial" font-size="9" font-weight="bold" fill="#ffffff">Members</text>

  <rect x="13" y="103" width="68" height="17" rx="2" fill="#2a2a3e" opacity="0.8"/>
  <text x="18" y="114" font-family="Arial" font-size="9" fill="#b8b8d0">Territory</text>

  <rect x="13" y="122" width="68" height="17" rx="2" fill="#2a2a3e" opacity="0.8"/>
  <text x="18" y="133" font-family="Arial" font-size="9" fill="#b8b8d0">Alliances</text>

  <rect x="13" y="141" width="68" height="17" rx="2" fill="#2a2a3e" opacity="0.8"/>
  <text x="18" y="152" font-family="Arial" font-size="9" fill="#b8b8d0">Chest</text>

  <rect x="13" y="160" width="68" height="17" rx="2" fill="#2a2a3e" opacity="0.8"/>
  <text x="18" y="171" font-family="Arial" font-size="9" fill="#b8b8d0">Level</text>

  <rect x="13" y="179" width="68" height="17" rx="2" fill="#2a2a3e" opacity="0.8"/>
  <text x="18" y="190" font-family="Arial" font-size="9" fill="#b8b8d0">Quests</text>

  <rect x="13" y="198" width="68" height="17" rx="2" fill="#2a2a3e" opacity="0.8"/>
  <text x="18" y="209" font-family="Arial" font-size="9" fill="#b8b8d0">Shop</text>

  <rect x="13" y="217" width="68" height="17" rx="2" fill="#2a2a3e" opacity="0.8"/>
  <text x="18" y="228" font-family="Arial" font-size="9" fill="#b8b8d0">Settings</text>

  <rect x="13" y="235" width="68" height="26" fill="#1a1a2e" opacity="0.9"/>
  <text x="47" y="245" font-family="Arial" font-size="8" fill="#a0a0c0" text-anchor="middle">POWER</text>
  <rect x="18" y="248" width="60" height="4" rx="2" fill="#2a2a3e"/>
  <rect x="18" y="248" width="45" height="4" rx="2" fill="#a855f7"/>
  <text x="47" y="259" font-family="Arial" font-size="9" font-weight="bold" fill="#00d2ff" text-anchor="middle">75.0/100.0</text>

  <!-- Main panel -->
  <rect x="90" y="9" width="297" height="252" fill="#1e1e2e" opacity="0.94"/>

  <!-- Header (x=99, y=47, w=275, h=12) -->
  <rect x="95" y="13" width="289" height="26" fill="#1a1a2e" opacity="0.8"/>
  <rect x="95" y="13" width="289" height="26" fill="none" stroke="#00d2ff" stroke-width="2"/>
  <rect x="95" y="13" width="22" height="2" fill="#00d2ff"/>
  <text x="102" y="29" font-family="Arial" font-size="14" font-weight="bold" fill="#ffffff">Faction - Members</text>

  <!-- Close button -->
  <rect x="373" y="17" width="11" height="11" rx="2" fill="#ef4444" opacity="0.8"/>
  <text x="378.5" y="25" font-family="Arial" font-size="10" font-weight="bold" fill="#ffffff" text-anchor="middle">X</text>

  <!-- Header info (x=99, y=47, w=275, h=12) -->
  <rect x="99" y="47" width="275" height="12" fill="#1e1e2e" opacity="0.9"/>
  <rect x="99" y="47" width="275" height="12" fill="none" stroke="#00d2ff" stroke-width="1"/>
  <text x="104" y="56" font-family="Arial" font-size="9" font-weight="bold" fill="#ffffff">Members</text>
  <text x="364" y="56" font-family="Arial" font-size="9" fill="#00d2ff" text-anchor="end">24 members</text>

  <!-- Members list (x=99, y=62, w=275, h=190) -->
  <rect x="99" y="62" width="275" height="190" fill="#1e1e2e" opacity="0.9"/>
  <rect x="99" y="62" width="275" height="190" fill="none" stroke="#667eea" stroke-width="1" opacity="0.3"/>

  <!-- Scrollbar -->
  <rect x="368" y="62" width="6" height="190" fill="#2a2a3e" opacity="0.5"/>
  <rect x="368" y="62" width="6" height="60" fill="#667eea"/>

  <!-- Member items (30px height each) -->
  <rect x="103" y="67" width="265" height="30" fill="#667eea" opacity="0.2"/>
  <circle cx="111" cy="82" r="3" fill="#10b981"/>
  <text x="119" y="77" font-family="Arial" font-size="10" font-weight="bold" fill="#ffffff">AstralCommander</text>
  <text x="119" y="89" font-family="Arial" font-size="8" fill="#a855f7">Officer</text>
  <rect x="313" y="74" width="40" height="8" rx="3" fill="#2a2a3e"/>
  <rect x="313" y="74" width="33" height="8" rx="3" fill="#a855f7"/>
  <text x="313" y="91" font-family="Arial" font-size="8" fill="#00d2ff">20.0/20.0</text>

  <rect x="103" y="102" width="265" height="30" fill="transparent"/>
  <circle cx="111" cy="117" r="3" fill="#10b981"/>
  <text x="119" y="112" font-family="Arial" font-size="10" fill="#ffffff">Player_123</text>
  <text x="119" y="124" font-family="Arial" font-size="8" fill="#3b82f6">Member</text>
  <rect x="313" y="109" width="40" height="8" rx="3" fill="#2a2a3e"/>
  <rect x="313" y="109" width="26" height="8" rx="3" fill="#a855f7"/>
  <text x="313" y="126" font-family="Arial" font-size="8" fill="#00d2ff">12.5/20.0</text>

  <rect x="103" y="137" width="265" height="30" fill="transparent"/>
  <circle cx="111" cy="152" r="3" fill="#6a6a7e"/>
  <text x="119" y="147" font-family="Arial" font-size="10" fill="#b8b8d0">CyberKnight47</text>
  <text x="119" y="159" font-family="Arial" font-size="8" fill="#3b82f6">Member</text>
  <rect x="313" y="144" width="40" height="8" rx="3" fill="#2a2a3e"/>
  <rect x="313" y="144" width="30" height="8" rx="3" fill="#a855f7"/>
  <text x="313" y="161" font-family="Arial" font-size="8" fill="#00d2ff">14.0/20.0</text>

  <rect x="103" y="172" width="265" height="30" fill="transparent"/>
  <circle cx="111" cy="187" r="3" fill="#10b981"/>
  <text x="119" y="182" font-family="Arial" font-size="10" fill="#ffffff">Newbie_99</text>
  <text x="119" y="194" font-family="Arial" font-size="8" fill="#6a6a7e">Recruit</text>
  <rect x="313" y="179" width="40" height="8" rx="3" fill="#2a2a3e"/>
  <rect x="313" y="179" width="17" height="8" rx="3" fill="#a855f7"/>
  <text x="313" y="196" font-family="Arial" font-size="8" fill="#00d2ff">8.0/20.0</text>

  <rect x="103" y="207" width="265" height="30" fill="transparent"/>
  <circle cx="111" cy="222" r="3" fill="#6a6a7e"/>
  <text x="119" y="217" font-family="Arial" font-size="10" fill="#b8b8d0">Starter_01</text>
  <text x="119" y="229" font-family="Arial" font-size="8" fill="#6a6a7e">Recruit</text>
  <rect x="313" y="214" width="40" height="8" rx="3" fill="#2a2a3e"/>
  <rect x="313" y="214" width="21" height="8" rx="3" fill="#a855f7"/>
  <text x="313" y="231" font-family="Arial" font-size="8" fill="#00d2ff">10.0/20.0</text>
</svg>
