<svg width="400" height="270" xmlns="http://www.w3.org/2000/svg">
  <defs>
    <linearGradient id="bgGradient" x1="0%" y1="0%" x2="100%" y2="100%">
      <stop offset="0%" style="stop-color:#0f0c29;stop-opacity:1" />
      <stop offset="100%" style="stop-color:#24243e;stop-opacity:1" />
    </linearGradient>
  </defs>

  <!-- Background -->
  <rect width="400" height="270" fill="url(#bgGradient)"/>

  <!-- Border (2px glow + 1px line) -->
  <rect x="4" y="4" width="392" height="262" fill="none" stroke="#00d2ff" stroke-width="2" opacity="0.5"/>
  <rect x="4" y="4" width="392" height="262" fill="none" stroke="#00d2ff" stroke-width="1"/>

  <!-- Sidebar -->
  <rect x="9" y="9" width="77" height="252" fill="#16161f" opacity="0.97"/>
  <rect x="9" y="9" width="77" height="252" fill="none" stroke="#667eea" stroke-width="1" opacity="0.3"/>

  <!-- Logo header -->
  <rect x="13" y="13" width="68" height="43" fill="#1a1a2e" opacity="0.8"/>
  <rect x="13" y="13" width="68" height="43" fill="none" stroke="#00d2ff" stroke-width="2"/>
  <circle cx="47" cy="28" r="10" fill="#ec4899" opacity="0.8"/>
  <text x="47" y="32" font-family="Arial" font-size="10" font-weight="bold" fill="#ffffff" text-anchor="middle">E</text>
  <text x="47" y="51" font-family="Arial" font-size="9" font-weight="bold" fill="#00d2ff" text-anchor="middle">FACTION</text>

  <!-- Nav buttons (scaled for 400x270) -->
  <!-- Overview - SELECTED -->
  <rect x="13" y="65" width="68" height="17" rx="2" fill="#667eea"/>
  <rect x="13" y="65" width="20" height="2" fill="#00d2ff"/>
  <text x="18" y="76" font-family="Arial" font-size="9" font-weight="bold" fill="#ffffff">Overview</text>

  <!-- Other nav buttons -->
  <rect x="13" y="84" width="68" height="17" rx="2" fill="#2a2a3e" opacity="0.8"/>
  <text x="18" y="95" font-family="Arial" font-size="9" fill="#b8b8d0">Members</text>

  <rect x="13" y="103" width="68" height="17" rx="2" fill="#2a2a3e" opacity="0.8"/>
  <text x="18" y="114" font-family="Arial" font-size="9" fill="#b8b8d0">Territory</text>

  <rect x="13" y="122" width="68" height="17" rx="2" fill="#2a2a3e" opacity="0.8"/>
  <text x="18" y="133" font-family="Arial" font-size="9" fill="#b8b8d0">Alliances</text>

  <rect x="13" y="141" width="68" height="17" rx="2" fill="#2a2a3e" opacity="0.8"/>
  <text x="18" y="152" font-family="Arial" font-size="9" fill="#b8b8d0">Chest</text>

  <rect x="13" y="160" width="68" height="17" rx="2" fill="#2a2a3e" opacity="0.8"/>
  <text x="18" y="171" font-family="Arial" font-size="9" fill="#b8b8d0">Level</text>

  <rect x="13" y="179" width="68" height="17" rx="2" fill="#2a2a3e" opacity="0.8"/>
  <text x="18" y="190" font-family="Arial" font-size="9" fill="#b8b8d0">Quests</text>

  <rect x="13" y="198" width="68" height="17" rx="2" fill="#2a2a3e" opacity="0.8"/>
  <text x="18" y="209" font-family="Arial" font-size="9" fill="#b8b8d0">Shop</text>

  <rect x="13" y="217" width="68" height="17" rx="2" fill="#2a2a3e" opacity="0.8"/>
  <text x="18" y="228" font-family="Arial" font-size="9" fill="#b8b8d0">Settings</text>

  <!-- Power indicator -->
  <rect x="13" y="235" width="68" height="26" fill="#1a1a2e" opacity="0.9"/>
  <text x="47" y="245" font-family="Arial" font-size="8" fill="#a0a0c0" text-anchor="middle">POWER</text>
  <rect x="18" y="248" width="60" height="4" rx="2" fill="#2a2a3e"/>
  <rect x="18" y="248" width="45" height="4" rx="2" fill="#a855f7"/>
  <text x="47" y="259" font-family="Arial" font-size="9" font-weight="bold" fill="#00d2ff" text-anchor="middle">75.0/100.0</text>

  <!-- Main panel -->
  <rect x="90" y="9" width="297" height="252" fill="#1e1e2e" opacity="0.94"/>

  <!-- Header -->
  <rect x="95" y="13" width="289" height="26" fill="#1a1a2e" opacity="0.8"/>
  <rect x="95" y="13" width="289" height="26" fill="none" stroke="#00d2ff" stroke-width="2"/>
  <rect x="95" y="13" width="22" height="2" fill="#00d2ff"/>
  <text x="102" y="29" font-family="Arial" font-size="14" font-weight="bold" fill="#ffffff">Faction - Overview</text>

  <!-- Close button -->
  <rect x="373" y="17" width="11" height="11" rx="2" fill="#ef4444" opacity="0.8"/>
  <text x="378.5" y="25" font-family="Arial" font-size="10" font-weight="bold" fill="#ffffff" text-anchor="middle">X</text>

  <!-- 3 Stat cards -->
  <rect x="95" y="43" width="88" height="50" fill="#1e1e2e" opacity="0.9"/>
  <rect x="95" y="43" width="88" height="50" fill="none" stroke="#3b82f6" stroke-width="1" opacity="0.5"/>
  <text x="104" y="69" font-family="Arial" font-size="9" fill="#a0a0c0">MEMBERS</text>
  <text x="104" y="80" font-family="Arial" font-size="16" font-weight="bold" fill="#3b82f6">24/50</text>

  <rect x="187" y="43" width="88" height="50" fill="#1e1e2e" opacity="0.9"/>
  <rect x="187" y="43" width="88" height="50" fill="none" stroke="#a855f7" stroke-width="1" opacity="0.5"/>
  <text x="196" y="69" font-family="Arial" font-size="9" fill="#a0a0c0">CLAIMS</text>
  <text x="196" y="80" font-family="Arial" font-size="16" font-weight="bold" fill="#a855f7">156/200</text>

  <rect x="279" y="43" width="88" height="50" fill="#1e1e2e" opacity="0.9"/>
  <rect x="279" y="43" width="88" height="50" fill="none" stroke="#fbbf24" stroke-width="1" opacity="0.5"/>
  <text x="288" y="69" font-family="Arial" font-size="9" fill="#a0a0c0">LEVEL</text>
  <text x="288" y="80" font-family="Arial" font-size="16" font-weight="bold" fill="#fbbf24">15</text>

  <!-- Info scroll list area -->
  <rect x="95" y="105" width="289" height="130" fill="#1e1e2e" opacity="0.9"/>
  <rect x="95" y="105" width="289" height="130" fill="none" stroke="#667eea" stroke-width="1" opacity="0.3"/>

  <!-- Scrollbar track -->
  <rect x="378" y="105" width="6" height="130" fill="#2a2a3e" opacity="0.5"/>
  <rect x="378" y="105" width="6" height="40" fill="#667eea"/>

  <!-- Info items (sample) -->
  <text x="99" y="115" font-family="Arial" font-size="9" fill="#a0a0c0">Name:</text>
  <text x="179" y="115" font-family="Arial" font-size="9" font-weight="bold" fill="#00d2ff">Cyber Knights</text>

  <text x="99" y="128" font-family="Arial" font-size="9" fill="#a0a0c0">Level:</text>
  <text x="179" y="128" font-family="Arial" font-size="9" font-weight="bold" fill="#fbbf24">15</text>

  <text x="99" y="141" font-family="Arial" font-size="9" fill="#a0a0c0">Mode:</text>
  <text x="179" y="141" font-family="Arial" font-size="9" fill="#a855f7">NORMAL</text>

  <text x="99" y="154" font-family="Arial" font-size="9" fill="#a0a0c0">Members:</text>
  <text x="179" y="154" font-family="Arial" font-size="9" fill="#3b82f6">24 / 50</text>

  <text x="99" y="167" font-family="Arial" font-size="9" fill="#a0a0c0">Claims:</text>
  <text x="179" y="167" font-family="Arial" font-size="9" fill="#a855f7">156 / 200</text>

  <text x="99" y="180" font-family="Arial" font-size="9" fill="#a0a0c0">Warps:</text>
  <text x="179" y="180" font-family="Arial" font-size="9" fill="#8b5cf6">5 / 10</text>

  <text x="99" y="193" font-family="Arial" font-size="9" fill="#a0a0c0">Bank:</text>
  <text x="179" y="193" font-family="Arial" font-size="9" fill="#10b981">125000 coins</text>

  <text x="99" y="206" font-family="Arial" font-size="9" fill="#a0a0c0">Description:</text>
  <text x="99" y="219" font-family="Arial" font-size="8" fill="#b8b8d0">A powerful faction dominating the server</text>

  <!-- Action buttons -->
  <rect x="95" y="238" width="88" height="17" rx="3" fill="#667eea"/>
  <text x="139" y="250" font-family="Arial" font-size="10" font-weight="bold" fill="#ffffff" text-anchor="middle">Invite</text>

  <rect x="189" y="238" width="88" height="17" rx="3" fill="#2a2a3e"/>
  <rect x="189" y="238" width="88" height="17" rx="3" fill="none" stroke="#667eea" stroke-width="1"/>
  <text x="233" y="250" font-family="Arial" font-size="10" fill="#b8b8d0" text-anchor="middle">Manage</text>

  <rect x="283" y="238" width="88" height="17" rx="3" fill="#2a2a3e"/>
  <rect x="283" y="238" width="88" height="17" rx="3" fill="none" stroke="#ef4444" stroke-width="1" opacity="0.6"/>
  <text x="327" y="250" font-family="Arial" font-size="10" fill="#ef4444" text-anchor="middle">Leave</text>
</svg>
