<svg width="400" height="270" xmlns="http://www.w3.org/2000/svg">
  <defs>
    <linearGradient id="bgGradient" x1="0%" y1="0%" x2="100%" y2="100%">
      <stop offset="0%" style="stop-color:#0f0c29;stop-opacity:1" />
      <stop offset="100%" style="stop-color:#24243e;stop-opacity:1" />
    </linearGradient>
  </defs>

  <rect width="400" height="270" fill="url(#bgGradient)"/>
  <rect x="4" y="4" width="392" height="262" fill="none" stroke="#00d2ff" stroke-width="2" opacity="0.5"/>
  <rect x="4" y="4" width="392" height="262" fill="none" stroke="#00d2ff" stroke-width="1"/>

  <!-- Sidebar -->
  <rect x="9" y="9" width="77" height="252" fill="#16161f" opacity="0.97"/>
  <rect x="13" y="13" width="68" height="43" fill="#1a1a2e" opacity="0.8"/>
  <rect x="13" y="13" width="68" height="43" fill="none" stroke="#00d2ff" stroke-width="2"/>
  <circle cx="47" cy="28" r="10" fill="#ec4899" opacity="0.8"/>
  <text x="47" y="32" font-family="Arial" font-size="10" font-weight="bold" fill="#ffffff" text-anchor="middle">E</text>
  <text x="47" y="51" font-family="Arial" font-size="9" font-weight="bold" fill="#00d2ff" text-anchor="middle">FACTION</text>

  <rect x="13" y="65" width="68" height="17" rx="2" fill="#2a2a3e" opacity="0.8"/><text x="18" y="76" font-family="Arial" font-size="9" fill="#b8b8d0">Overview</text>
  <rect x="13" y="84" width="68" height="17" rx="2" fill="#2a2a3e" opacity="0.8"/><text x="18" y="95" font-family="Arial" font-size="9" fill="#b8b8d0">Members</text>
  <rect x="13" y="103" width="68" height="17" rx="2" fill="#2a2a3e" opacity="0.8"/><text x="18" y="114" font-family="Arial" font-size="9" fill="#b8b8d0">Territory</text>
  <rect x="13" y="122" width="68" height="17" rx="2" fill="#2a2a3e" opacity="0.8"/><text x="18" y="133" font-family="Arial" font-size="9" fill="#b8b8d0">Alliances</text>
  <rect x="13" y="141" width="68" height="17" rx="2" fill="#2a2a3e" opacity="0.8"/><text x="18" y="152" font-family="Arial" font-size="9" fill="#b8b8d0">Chest</text>
  <rect x="13" y="160" width="68" height="17" rx="2" fill="#2a2a3e" opacity="0.8"/><text x="18" y="171" font-family="Arial" font-size="9" fill="#b8b8d0">Level</text>

  <rect x="13" y="179" width="68" height="17" rx="2" fill="#667eea"/>
  <rect x="13" y="179" width="20" height="2" fill="#00d2ff"/>
  <text x="18" y="190" font-family="Arial" font-size="9" font-weight="bold" fill="#ffffff">Quests</text>

  <rect x="13" y="198" width="68" height="17" rx="2" fill="#2a2a3e" opacity="0.8"/><text x="18" y="209" font-family="Arial" font-size="9" fill="#b8b8d0">Shop</text>
  <rect x="13" y="217" width="68" height="17" rx="2" fill="#2a2a3e" opacity="0.8"/><text x="18" y="228" font-family="Arial" font-size="9" fill="#b8b8d0">Settings</text>

  <rect x="13" y="235" width="68" height="26" fill="#1a1a2e" opacity="0.9"/>
  <text x="47" y="245" font-family="Arial" font-size="8" fill="#a0a0c0" text-anchor="middle">POWER</text>
  <rect x="18" y="248" width="60" height="4" rx="2" fill="#2a2a3e"/>
  <rect x="18" y="248" width="45" height="4" rx="2" fill="#a855f7"/>
  <text x="47" y="259" font-family="Arial" font-size="9" font-weight="bold" fill="#00d2ff" text-anchor="middle">75.0/100.0</text>

  <!-- Main panel -->
  <rect x="90" y="9" width="297" height="252" fill="#1e1e2e" opacity="0.94"/>

  <!-- Header -->
  <rect x="95" y="13" width="289" height="22" fill="#1a1a2e" opacity="0.8"/>
  <rect x="95" y="13" width="289" height="22" fill="none" stroke="#00d2ff" stroke-width="2"/>
  <rect x="95" y="13" width="22" height="2" fill="#00d2ff"/>
  <text x="102" y="28" font-family="Arial" font-size="14" font-weight="bold" fill="#ffffff">Faction - Quests</text>
  <text x="340" y="28" font-family="Arial" font-size="9" fill="#00d2ff" text-anchor="end">6 daily + 1 weekly</text>

  <!-- Close button -->
  <rect x="373" y="17" width="11" height="11" rx="2" fill="#ef4444" opacity="0.8"/>
  <text x="378.5" y="25" font-family="Arial" font-size="10" font-weight="bold" fill="#ffffff" text-anchor="middle">X</text>

  <!-- Quest list -->
  <rect x="95" y="40" width="289" height="215" fill="#1e1e2e" opacity="0.9"/>

  <!-- Quest 1 -->
  <rect x="99" y="45" width="275" height="40" fill="#1e1e2e" opacity="0.9"/>
  <rect x="99" y="45" width="275" height="40" fill="none" stroke="#fbbf24" stroke-width="1" opacity="0.5"/>
  <text x="104" y="58" font-family="Arial" font-size="10" font-weight="bold" fill="#fbbf24">Mine 100 blocks</text>
  <text x="104" y="70" font-family="Arial" font-size="8" fill="#a0a0c0">Reward: 500 coins</text>
  <rect x="104" y="75" width="240" height="5" rx="2" fill="#2a2a3e"/>
  <rect x="104" y="75" width="180" height="5" rx="2" fill="#fbbf24"/>
  <text x="104" y="84" font-family="Arial" font-size="8" fill="#00d2ff">75/100</text>

  <!-- Quest 2 -->
  <rect x="99" y="90" width="275" height="40" fill="#1e1e2e" opacity="0.9"/>
  <rect x="99" y="90" width="275" height="40" fill="none" stroke="#3b82f6" stroke-width="1" opacity="0.5"/>
  <text x="104" y="103" font-family="Arial" font-size="10" font-weight="bold" fill="#3b82f6">Claim 5 territories</text>
  <text x="104" y="115" font-family="Arial" font-size="8" fill="#a0a0c0">Reward: 1000 coins</text>
  <rect x="104" y="120" width="240" height="5" rx="2" fill="#2a2a3e"/>
  <rect x="104" y="120" width="96" height="5" rx="2" fill="#3b82f6"/>
  <text x="104" y="129" font-family="Arial" font-size="8" fill="#00d2ff">2/5</text>

  <!-- Quest 3 -->
  <rect x="99" y="135" width="275" height="40" fill="#1e1e2e" opacity="0.9"/>
  <rect x="99" y="135" width="275" height="40" fill="none" stroke="#10b981" stroke-width="1" opacity="0.5"/>
  <text x="104" y="148" font-family="Arial" font-size="10" font-weight="bold" fill="#10b981">Kill 10 mobs</text>
  <text x="104" y="160" font-family="Arial" font-size="8" fill="#a0a0c0">Reward: 300 coins</text>
  <rect x="104" y="165" width="240" height="5" rx="2" fill="#2a2a3e"/>
  <rect x="104" y="165" width="240" height="5" rx="2" fill="#10b981"/>
  <text x="104" y="174" font-family="Arial" font-size="8" fill="#00d2ff">10/10 - COMPLETE</text>

  <!-- Quest 4 (Weekly) -->
  <rect x="99" y="180" width="275" height="40" fill="#1e1e2e" opacity="0.9"/>
  <rect x="99" y="180" width="275" height="40" fill="none" stroke="#a855f7" stroke-width="1" opacity="0.5"/>
  <text x="104" y="193" font-family="Arial" font-size="10" font-weight="bold" fill="#a855f7">WEEKLY: Expand territory to 50 chunks</text>
  <text x="104" y="205" font-family="Arial" font-size="8" fill="#a0a0c0">Reward: 5000 coins</text>
  <rect x="104" y="210" width="240" height="5" rx="2" fill="#2a2a3e"/>
  <rect x="104" y="210" width="120" height="5" rx="2" fill="#a855f7"/>
  <text x="104" y="219" font-family="Arial" font-size="8" fill="#00d2ff">25/50</text>

  <!-- Scrollbar -->
  <rect x="378" y="40" width="6" height="215" fill="#2a2a3e" opacity="0.5"/>
  <rect x="378" y="40" width="6" height="100" fill="#667eea"/>
</svg>
