<svg width="400" height="270" xmlns="http://www.w3.org/2000/svg">
  <defs>
    <linearGradient id="bgGradient" x1="0%" y1="0%" x2="100%" y2="100%">
      <stop offset="0%" style="stop-color:#0f0c29;stop-opacity:1" />
      <stop offset="100%" style="stop-color:#24243e;stop-opacity:1" />
    </linearGradient>
  </defs>

  <rect width="400" height="270" fill="url(#bgGradient)"/>
  <rect x="4" y="4" width="392" height="262" fill="none" stroke="#00d2ff" stroke-width="2" opacity="0.5"/>
  <rect x="4" y="4" width="392" height="262" fill="none" stroke="#00d2ff" stroke-width="1"/>

  <!-- Sidebar -->
  <rect x="9" y="9" width="77" height="252" fill="#16161f" opacity="0.97"/>
  <rect x="13" y="13" width="68" height="43" fill="#1a1a2e" opacity="0.8"/>
  <rect x="13" y="13" width="68" height="43" fill="none" stroke="#00d2ff" stroke-width="2"/>
  <circle cx="47" cy="28" r="10" fill="#ec4899" opacity="0.8"/>
  <text x="47" y="32" font-family="Arial" font-size="10" font-weight="bold" fill="#ffffff" text-anchor="middle">E</text>
  <text x="47" y="51" font-family="Arial" font-size="9" font-weight="bold" fill="#00d2ff" text-anchor="middle">FACTION</text>

  <rect x="13" y="65" width="68" height="17" rx="2" fill="#2a2a3e" opacity="0.8"/><text x="18" y="76" font-family="Arial" font-size="9" fill="#b8b8d0">Overview</text>
  <rect x="13" y="84" width="68" height="17" rx="2" fill="#2a2a3e" opacity="0.8"/><text x="18" y="95" font-family="Arial" font-size="9" fill="#b8b8d0">Members</text>
  <rect x="13" y="103" width="68" height="17" rx="2" fill="#2a2a3e" opacity="0.8"/><text x="18" y="114" font-family="Arial" font-size="9" fill="#b8b8d0">Territory</text>
  <rect x="13" y="122" width="68" height="17" rx="2" fill="#2a2a3e" opacity="0.8"/><text x="18" y="133" font-family="Arial" font-size="9" fill="#b8b8d0">Alliances</text>
  <rect x="13" y="141" width="68" height="17" rx="2" fill="#2a2a3e" opacity="0.8"/><text x="18" y="152" font-family="Arial" font-size="9" fill="#b8b8d0">Chest</text>
  <rect x="13" y="160" width="68" height="17" rx="2" fill="#2a2a3e" opacity="0.8"/><text x="18" y="171" font-family="Arial" font-size="9" fill="#b8b8d0">Level</text>

  <rect x="13" y="179" width="68" height="17" rx="2" fill="#667eea"/>
  <rect x="13" y="179" width="20" height="2" fill="#00d2ff"/>
  <text x="18" y="190" font-family="Arial" font-size="9" font-weight="bold" fill="#ffffff">Quests</text>

  <rect x="13" y="198" width="68" height="17" rx="2" fill="#2a2a3e" opacity="0.8"/><text x="18" y="209" font-family="Arial" font-size="9" fill="#b8b8d0">Shop</text>
  <rect x="13" y="217" width="68" height="17" rx="2" fill="#2a2a3e" opacity="0.8"/><text x="18" y="228" font-family="Arial" font-size="9" fill="#b8b8d0">Settings</text>

  <rect x="13" y="235" width="68" height="26" fill="#1a1a2e" opacity="0.9"/>
  <text x="47" y="245" font-family="Arial" font-size="8" fill="#a0a0c0" text-anchor="middle">POWER</text>
  <rect x="18" y="248" width="60" height="4" rx="2" fill="#2a2a3e"/>
  <rect x="18" y="248" width="45" height="4" rx="2" fill="#a855f7"/>
  <text x="47" y="259" font-family="Arial" font-size="9" font-weight="bold" fill="#00d2ff" text-anchor="middle">75.0/100.0</text>

  <!-- Main panel -->
  <rect x="90" y="9" width="297" height="252" fill="#1e1e2e" opacity="0.94"/>

  <!-- Header -->
  <rect x="95" y="13" width="289" height="26" fill="#1a1a2e" opacity="0.8"/>
  <rect x="95" y="13" width="289" height="26" fill="none" stroke="#00d2ff" stroke-width="2"/>
  <rect x="95" y="13" width="22" height="2" fill="#00d2ff"/>
  <text x="102" y="29" font-family="Arial" font-size="14" font-weight="bold" fill="#ffffff">Faction - Quests</text>

  <!-- Close button -->
  <rect x="373" y="17" width="11" height="11" rx="2" fill="#ef4444" opacity="0.8"/>
  <text x="378.5" y="25" font-family="Arial" font-size="10" font-weight="bold" fill="#ffffff" text-anchor="middle">X</text>

  <!-- Header info (x=99, y=47, w=275, h=22) -->
  <rect x="99" y="47" width="275" height="22" fill="#1e1e2e" opacity="0.9"/>
  <rect x="99" y="47" width="275" height="22" fill="none" stroke="#00d2ff" stroke-width="1"/>
  <text x="108" y="62" font-family="Arial" font-size="14" font-weight="bold" fill="#ffffff">Quests</text>
  <text x="340" y="62" font-family="Arial" font-size="9" fill="#00d2ff" text-anchor="end">6 daily + 1 weekly</text>

  <!-- Quest list (x=99, y=74, w=275, h=184) -->
  <rect x="99" y="74" width="275" height="184" fill="#1e1e2e" opacity="0.9"/>

  <!-- Quest items (60px height each) -->
  <!-- Quest 1 - Daily -->
  <rect x="103" y="79" width="265" height="60" fill="#1e1e2e" opacity="0.9"/>
  <rect x="103" y="79" width="265" height="1" fill="#00d2ff" opacity="0.5"/>
  <text x="109" y="92" font-family="Arial" font-size="10" font-weight="bold" fill="#ffffff">Mine 100 blocks</text>
  <text x="109" y="104" font-family="Arial" font-size="8" fill="#a0a0c0">Reward: 500 coins</text>
  <rect x="109" y="109" width="253" height="8" rx="2" fill="#2a2a3e"/>
  <rect x="109" y="109" width="190" height="8" rx="2" fill="#00d2ff"/>
  <text x="109" y="127" font-family="Arial" font-size="8" fill="#00d2ff">75%</text>
  <text x="344" y="127" font-family="Arial" font-size="8" fill="#6a6a7e" text-anchor="end">Daily</text>

  <!-- Quest 2 - Daily -->
  <rect x="103" y="144" width="265" height="60" fill="#1e1e2e" opacity="0.9"/>
  <rect x="103" y="144" width="265" height="1" fill="#00d2ff" opacity="0.5"/>
  <text x="109" y="157" font-family="Arial" font-size="10" font-weight="bold" fill="#ffffff">Claim 5 territories</text>
  <text x="109" y="169" font-family="Arial" font-size="8" fill="#a0a0c0">Reward: 1000 coins</text>
  <rect x="109" y="174" width="253" height="8" rx="2" fill="#2a2a3e"/>
  <rect x="109" y="174" width="101" height="8" rx="2" fill="#00d2ff"/>
  <text x="109" y="192" font-family="Arial" font-size="8" fill="#00d2ff">40%</text>
  <text x="344" y="192" font-family="Arial" font-size="8" fill="#6a6a7e" text-anchor="end">Daily</text>

  <!-- Quest 3 - Weekly -->
  <rect x="103" y="209" width="265" height="60" fill="#1e1e2e" opacity="0.9"/>
  <rect x="103" y="209" width="265" height="1" fill="#fbbf24" opacity="0.5"/>
  <text x="109" y="222" font-family="Arial" font-size="10" font-weight="bold" fill="#fbbf24">WEEKLY: Expand territory</text>
  <text x="109" y="234" font-family="Arial" font-size="8" fill="#a0a0c0">Reward: 5000 coins</text>
  <rect x="109" y="239" width="253" height="8" rx="2" fill="#2a2a3e"/>
  <rect x="109" y="239" width="126" height="8" rx="2" fill="#fbbf24"/>
  <text x="109" y="257" font-family="Arial" font-size="8" fill="#fbbf24">50%</text>
  <text x="344" y="257" font-family="Arial" font-size="8" fill="#fbbf24" text-anchor="end">Weekly</text>

  <!-- Scrollbar -->
  <rect x="368" y="74" width="6" height="184" fill="#2a2a3e" opacity="0.5"/>
  <rect x="368" y="74" width="6" height="100" fill="#667eea"/>
</svg>
