<svg width="400" height="270" xmlns="http://www.w3.org/2000/svg">
  <defs><linearGradient id="bg" x1="0%" y1="0%" x2="100%" y2="100%"><stop offset="0%" style="stop-color:#0f0c29"/><stop offset="100%" style="stop-color:#24243e"/></linearGradient></defs>
  <rect width="400" height="270" fill="url(#bg)"/><rect x="4" y="4" width="392" height="262" fill="none" stroke="#00d2ff" stroke-width="2" opacity="0.5"/><rect x="4" y="4" width="392" height="262" fill="none" stroke="#00d2ff" stroke-width="1"/>
  <rect x="9" y="9" width="77" height="252" fill="#16161f" opacity="0.97"/><rect x="13" y="13" width="68" height="43" fill="#1a1a2e" opacity="0.8"/><rect x="13" y="13" width="68" height="43" fill="none" stroke="#00d2ff" stroke-width="2"/><circle cx="47" cy="28" r="10" fill="#ec4899" opacity="0.8"/><text x="47" y="32" font-family="Arial" font-size="10" font-weight="bold" fill="#fff" text-anchor="middle">E</text><text x="47" y="51" font-family="Arial" font-size="9" font-weight="bold" fill="#00d2ff" text-anchor="middle">FACTION</text>
  <rect x="13" y="65" width="68" height="17" rx="2" fill="#2a2a3e" opacity="0.8"/><text x="18" y="76" font-family="Arial" font-size="9" fill="#b8b8d0">Overview</text><rect x="13" y="84" width="68" height="17" rx="2" fill="#2a2a3e" opacity="0.8"/><text x="18" y="95" font-family="Arial" font-size="9" fill="#b8b8d0">Members</text><rect x="13" y="103" width="68" height="17" rx="2" fill="#2a2a3e" opacity="0.8"/><text x="18" y="114" font-family="Arial" font-size="9" fill="#b8b8d0">Territory</text><rect x="13" y="122" width="68" height="17" rx="2" fill="#2a2a3e" opacity="0.8"/><text x="18" y="133" font-family="Arial" font-size="9" fill="#b8b8d0">Alliances</text><rect x="13" y="141" width="68" height="17" rx="2" fill="#2a2a3e" opacity="0.8"/><text x="18" y="152" font-family="Arial" font-size="9" fill="#b8b8d0">Chest</text><rect x="13" y="160" width="68" height="17" rx="2" fill="#2a2a3e" opacity="0.8"/><text x="18" y="171" font-family="Arial" font-size="9" fill="#b8b8d0">Level</text><rect x="13" y="179" width="68" height="17" rx="2" fill="#2a2a3e" opacity="0.8"/><text x="18" y="190" font-family="Arial" font-size="9" fill="#b8b8d0">Quests</text><rect x="13" y="198" width="68" height="17" rx="2" fill="#2a2a3e" opacity="0.8"/><text x="18" y="209" font-family="Arial" font-size="9" fill="#b8b8d0">Shop</text>
  <rect x="13" y="217" width="68" height="17" rx="2" fill="#667eea"/><rect x="13" y="217" width="20" height="2" fill="#00d2ff"/><text x="18" y="228" font-family="Arial" font-size="9" font-weight="bold" fill="#fff">Settings</text>
  <rect x="13" y="235" width="68" height="26" fill="#1a1a2e" opacity="0.9"/><text x="47" y="245" font-family="Arial" font-size="8" fill="#a0a0c0" text-anchor="middle">POWER</text><rect x="18" y="248" width="60" height="4" rx="2" fill="#2a2a3e"/><rect x="18" y="248" width="45" height="4" rx="2" fill="#a855f7"/><text x="47" y="259" font-family="Arial" font-size="9" font-weight="bold" fill="#00d2ff" text-anchor="middle">75.0/100.0</text>
  <rect x="90" y="9" width="297" height="252" fill="#1e1e2e" opacity="0.94"/><rect x="95" y="13" width="289" height="22" fill="#1a1a2e" opacity="0.8"/><rect x="95" y="13" width="289" height="22" fill="none" stroke="#00d2ff" stroke-width="2"/><rect x="95" y="13" width="22" height="2" fill="#00d2ff"/><text x="102" y="28" font-family="Arial" font-size="14" font-weight="bold" fill="#fff">Settings - Permissions</text><rect x="373" y="17" width="11" height="11" rx="2" fill="#ef4444" opacity="0.8"/><text x="378.5" y="25" font-family="Arial" font-size="10" font-weight="bold" fill="#fff" text-anchor="middle">X</text>

  <!-- Rank buttons -->
  <rect x="95" y="40" width="62" height="20" rx="2" fill="#a855f7"/><text x="126" y="54" font-family="Arial" font-size="9" font-weight="bold" fill="#fff" text-anchor="middle">Officier</text>
  <rect x="160" y="40" width="62" height="20" rx="2" fill="#2a2a3e"/><text x="191" y="54" font-family="Arial" font-size="9" fill="#b8b8d0" text-anchor="middle">Membre</text>
  <rect x="225" y="40" width="62" height="20" rx="2" fill="#2a2a3e"/><text x="256" y="54" font-family="Arial" font-size="9" fill="#b8b8d0" text-anchor="middle">Recrue</text>

  <!-- Permission list -->
  <rect x="95" y="65" width="289" height="150" fill="#1e1e2e" opacity="0.9"/><rect x="378" y="65" width="6" height="150" fill="#2a2a3e" opacity="0.5"/><rect x="378" y="65" width="6" height="50" fill="#667eea"/>

  <!-- Permission items with toggles -->
  <rect x="99" y="70" width="275" height="24" fill="transparent"/>
  <text x="104" y="84" font-family="Arial" font-size="9" fill="#fff">Inviter des membres</text>
  <rect x="350" y="77" width="20" height="10" rx="5" fill="#10b981"/><circle cx="365" cy="82" r="4" fill="#fff"/>

  <rect x="99" y="97" width="275" height="24" fill="transparent"/>
  <text x="104" y="111" font-family="Arial" font-size="9" fill="#fff">Expulser des membres</text>
  <rect x="350" y="104" width="20" height="10" rx="5" fill="#10b981"/><circle cx="365" cy="109" r="4" fill="#fff"/>

  <rect x="99" y="124" width="275" height="24" fill="transparent"/>
  <text x="104" y="138" font-family="Arial" font-size="9" fill="#fff">Claim du territoire</text>
  <rect x="350" y="131" width="20" height="10" rx="5" fill="#10b981"/><circle cx="365" cy="136" r="4" fill="#fff"/>

  <rect x="99" y="151" width="275" height="24" fill="transparent"/>
  <text x="104" y="165" font-family="Arial" font-size="9" fill="#fff">G\u00e9rer les permissions</text>
  <rect x="350" y="158" width="20" height="10" rx="5" fill="#6a6a7e"/><circle cx="355" cy="163" r="4" fill="#fff"/>

  <rect x="99" y="178" width="275" height="24" fill="transparent"/>
  <text x="104" y="192" font-family="Arial" font-size="9" fill="#fff">G\u00e9rer les alliances</text>
  <rect x="350" y="185" width="20" height="10" rx="5" fill="#10b981"/><circle cx="365" cy="190" r="4" fill="#fff"/>

  <!-- Action buttons -->
  <rect x="95" y="220" width="88" height="17" rx="3" fill="#667eea"/><text x="139" y="232" font-family="Arial" font-size="10" font-weight="bold" fill="#fff" text-anchor="middle">Refresh</text>
  <rect x="189" y="220" width="88" height="17" rx="3" fill="#2a2a3e"/><text x="233" y="232" font-family="Arial" font-size="10" fill="#b8b8d0" text-anchor="middle">Reset</text>
  <rect x="283" y="220" width="88" height="17" rx="3" fill="#2a2a3e"/><text x="327" y="232" font-family="Arial" font-size="9" fill="#b8b8d0" text-anchor="middle">Tout donner</text>
</svg>
